<?xml version="1.0" standalone="no"?>
<!DOCTYPE svg PUBLIC "-//W3C//DTD SVG 1.1//EN" "http://www.w3.org/Graphics/SVG/1.1/DTD/svg11.dtd">

<svg width="135" height="50" viewBox="0 0 135 50" preserveAspectRatio="none" 
  xmlns="http://www.w3.org/2000/svg"
  xmlns:xlink="http://www.w3.org/1999/xlink">


<polyline points="0.0, 48.52934528995334 0.7988165680473372, 48.923617855845805 1.5976331360946745, 48.80737607503645 2.396449704142012, 48.95122016655334 3.195266272189349, 49.692159891608526 3.994082840236686, 49.99245468433143 4.792899408284024, 48.982973576931435 5.591715976331361, 48.29295527704964 6.390532544378698, 48.49264433295167 7.189349112426036, 48.55974710865066 7.988165680473372, 48.4101561124633 8.78698224852071, 49.15771986468991 9.585798816568047, 49.362391538691966 10.384615384615385, 49.1450336825222 11.183431952662723, 50.0 11.982248520710058, 49.563704193363876 12.781065088757396, 49.3500966567247 13.579881656804734, 49.13850917709311 14.378698224852071, 49.17007158150247 15.177514792899409, 49.26872498784867 15.976331360946745, 49.125018808718906 16.775147928994084, 49.50749979085105 17.57396449704142, 49.2261388108412 18.37278106508876, 49.192432066601775 19.171597633136095, 49.14051426751433 19.970414201183434, 49.34810998635217 20.76923076923077, 49.04822342973104 21.56804733727811, 49.529415416796894 22.366863905325445, 49.01800943853252 23.16568047337278, 48.53837294194786 23.964497041420117, 48.090119858321664 24.763313609467456, 47.40023384052555 25.562130177514792, 47.384949069311475 26.36094674556213, 46.735297986199136 27.159763313609467, 46.42682864860298 27.958579881656807, 46.39536622167838 28.757396449704142, 46.27781225940002 29.55621301775148, 46.99636823712771 30.355029585798817, 46.90664304029825 31.153846153846157, 47.18944480633238 31.95266272189349, 47.38962736728626 32.751479289940825, 48.069980928852715 33.55029585798817, 47.7055771590438 34.349112426035504, 47.24757431921709 35.14792899408284, 46.358798584536004 35.94674556213018, 46.91112677336376 36.74556213017752, 46.75429954190911 37.54437869822485, 46.91899087802712 38.34319526627219, 47.09985545279627 39.142011834319526, 47.23169110658119 39.94082840236687, 47.60967260194891 40.7396449704142, 46.95809887718572 41.53846153846154, 46.892044732089275 42.337278106508876, 46.91260187603313 43.13609467455622, 46.56265682154086 43.93491124260355, 46.18700098374342 44.73372781065089, 46.37238905048295 45.532544378698226, 45.53633022382396 46.33136094674556, 44.885581086470914 47.1301775147929, 45.31404017013313 47.928994082840234, 45.64357902310999 48.72781065088758, 45.16608256070887 49.52662721893491, 45.33469076183822 50.32544378698225, 45.10137157563169 51.124260355029584, 45.53211436132143 51.92307692307693, 44.64411096180834 52.72189349112426, 44.21222095715131 53.5207100591716, 43.987683746921405 54.319526627218934, 44.26611819575577 55.11834319526627, 43.79413342579077 55.91715976331361, 44.950565708904946 56.71597633136094, 44.25022575366326 57.514792899408285, 44.637591975016264 58.31360946745562, 44.23252813744791 59.11242603550296, 44.09760624444367 59.91124260355029, 42.431387363101884 60.710059171597635, 41.3313914936386 61.50887573964497, 40.85719560871055 62.307692307692314, 40.036934908236105 63.10650887573964, 39.09601005894011 63.90532544378698, 39.11235616866147 64.70414201183432, 37.87021363634732 65.50295857988165, 36.86569145870974 66.30177514792899, 37.17637725822809 67.10059171597634, 37.1210700342835 67.89940828402366, 34.74354658999819 68.69822485207101, 32.43975090659315 69.49704142011834, 31.64225733193057 70.29585798816568, 33.08242897571533 71.09467455621302, 33.42074376030687 71.89349112426036, 32.561379946352865 72.6923076923077, 32.06545085464412 73.49112426035504, 32.14999394613346 74.28994082840237, 32.10093331002453 75.0887573964497, 30.815093015943383 75.88757396449704, 30.349110698566534 76.68639053254438, 30.717068867767804 77.48520710059172, 29.280186381930555 78.28402366863905, 29.761453215129407 79.0828402366864, 29.32862814688861 79.88165680473374, 28.293983112211656 80.68047337278107, 27.0988170211792 81.4792899408284, 25.37064649189322 82.27810650887574, 24.446619598255694 83.07692307692308, 25.68989319124526 83.87573964497041, 27.834574987513548 84.67455621301775, 26.66006346026726 85.4733727810651, 25.641522643378366 86.27218934911244, 26.81813455948602 87.07100591715975, 24.468548118997717 87.8698224852071, 23.282757516364168 88.66863905325444, 24.044729716923776 89.46745562130178, 27.379198794283987 90.26627218934911, 24.84469469039624 91.06508875739645, 24.46717304989226 91.8639053254438, 23.825722099806097 92.66272189349112, 21.291287080703093 93.46153846153845, 16.764713305333 94.2603550295858, 14.589490108838325 95.05917159763314, 15.301471864580552 95.85798816568047, 16.94238497757441 96.65680473372781, 14.687087887991884 97.45562130177515, 16.082463323893386 98.2544378698225, 20.13956573327967 99.05325443786982, 20.3917659580748 99.85207100591715, 16.81239177399388 100.6508875739645, 19.48211421189964 101.44970414201183, 21.100574778051335 102.24852071005917, 21.152537238394743 103.04733727810651, 19.703427119150128 103.84615384615385, 17.452129164319015 104.64497041420118, 11.282913495605687 105.44378698224853, 7.427504166871518 106.24260355029585, 10.604516097685666 107.0414201183432, 11.785535853976162 107.84023668639053, 14.005367629274973 108.63905325443787, 13.086703585679249 109.43786982248521, 11.868696474750207 110.23668639053254, 11.779341894280638 111.03550295857988, 13.967415238718164 111.83431952662723, 12.571405535889134 112.63313609467457, 10.284540226980635 113.43195266272188, 9.868385020949427 114.23076923076923, 12.161073466052763 115.02958579881657, 13.229885710669429 115.82840236686391, 14.094572003129796 116.62721893491124, 12.102018707974365 117.42603550295858, 8.742740141130048 118.22485207100593, 9.56217246575488 119.02366863905324, 11.099285326360553 119.82248520710058, 13.421438197719496 120.62130177514793, 14.233014010968247 121.42011834319527, 14.113779043831995 122.2189349112426, 12.753559366771059 123.01775147928994, 16.354287315386735 123.81656804733728, 18.213534584296447 124.61538461538463, 11.848222706352205 125.41420118343194, 4.6035081852157065 126.21301775147928, 3.1381983466911145 127.01183431952663, 6.263281398379982 127.81065088757396, 5.808484439821333 128.60946745562129, 3.5434412734486416 129.40828402366864, 7.786129412105981 130.20710059171597, 9.639787674635354 131.0059171597633, 8.316455559224408 131.80473372781066, 2.510459561131682 132.60355029585799, 0.0 133.40236686390534, 1.4701338290978851 134.20118343195267, 1.2200394599690179" fill="none" stroke="#32ca5b" stroke-width="1.25"/>

</svg>